<svg id="Layer_1" data-name="Layer 1" xmlns="http://www.w3.org/2000/svg" viewBox="0 0 190 40.12067"><path d="M56.75563,30.18932a8.94159,8.94159,0,0,0,8.20272-4.73685l-3.52356-1.70409a5.22264,5.22264,0,0,1-4.67916,2.80177c-3.3505,0-5.89221-2.68617-5.89221-6.32552,0-3.63928,2.54171-6.32542,5.89221-6.32542a5.27628,5.27628,0,0,1,4.67916,2.80166l3.52356-1.733a8.88946,8.88946,0,0,0-8.20272-4.70795,9.75179,9.75179,0,0,0-10.10918,9.9647A9.75181,9.75181,0,0,0,56.75563,30.18932Z" style="fill:#343f51"/><path d="M73.33907,30.18932a7.08,7.08,0,0,0,7.39416-7.33626,7.38,7.38,0,0,0-14.75927,0A7.07255,7.07255,0,0,0,73.33907,30.18932Zm0-3.26374c-2.28167,0-3.55264-1.87739-3.55264-4.07252,0-2.1663,1.271-4.04371,3.55264-4.04371,2.28188,0,3.5817,1.87741,3.5817,4.04371C76.92077,25.04819,75.62095,26.92558,73.33907,26.92558Z" style="fill:#343f51"/><path d="M95.25167,29.84273V19.99356c0-2.715-1.47288-4.448-4.53471-4.448a6.38751,6.38751,0,0,0-4.88106,2.16624V15.89215H82.16766V29.84273H85.8359v-9.387a3.97265,3.97265,0,0,1,3.177-1.64633c1.55987,0,2.57079.66431,2.57079,2.59949v8.43389Z" style="fill:#343f51"/><path d="M109.95616,29.84273V19.99356c0-2.715-1.47289-4.448-4.53471-4.448a6.38751,6.38751,0,0,0-4.88107,2.16624V15.89215H96.87214V29.84273h3.66824v-9.387a3.97262,3.97262,0,0,1,3.177-1.64633c1.55987,0,2.57078.66431,2.57078,2.59949v8.43389Z" style="fill:#343f51"/><path d="M111.38723,22.85306a7.06511,7.06511,0,0,0,7.45186,7.33626,8.5983,8.5983,0,0,0,5.74775-1.93508l-1.61732-2.36842a5.70572,5.70572,0,0,1-3.72594,1.38635,3.75915,3.75915,0,0,1-4.01481-3.23489h10.369V23.2285c0-4.56358-2.83039-7.683-6.98967-7.683A7.1,7.1,0,0,0,111.38723,22.85306Zm7.22087-4.3903a3.23137,3.23137,0,0,1,3.437,3.09049h-6.87406A3.35237,3.35237,0,0,1,118.6081,18.46276Z" style="fill:#343f51"/><path d="M139.48094,29.84273l-4.99667-7.163,4.67894-6.78755h-4.10137l-2.85945,4.30359-2.8883-4.30359h-4.10137l4.65009,6.78755-4.939,7.163h4.07252l3.20605-4.708,3.1772,4.708Z" style="fill:#343f51"/><path d="M139.70321,20.22463a10.06631,10.06631,0,0,0,20.1316,0,10.06631,10.06631,0,0,0-20.1316,0Zm15.91463,0c0,3.58144-2.3105,6.32552-5.86313,6.32552s-5.83453-2.74408-5.83453-6.32552c0-3.61041,2.28189-6.32542,5.83453-6.32542S155.61784,16.61422,155.61784,20.22463Z" style="fill:#50b79b"/><path d="M174.35594,29.84273V19.99356c0-2.715-1.47289-4.448-4.53448-4.448a6.38768,6.38768,0,0,0-4.8813,2.16624V15.89215h-3.66825V29.84273h3.66825v-9.387a3.97264,3.97264,0,0,1,3.177-1.64633c1.55986,0,2.57079.66431,2.57079,2.59949v8.43389Z" style="fill:#50b79b"/><path d="M175.78946,22.85306a7.06512,7.06512,0,0,0,7.45187,7.33626,8.5983,8.5983,0,0,0,5.74775-1.93508l-1.61732-2.36842a5.70572,5.70572,0,0,1-3.72594,1.38635,3.75917,3.75917,0,0,1-4.01482-3.23489H190V23.2285c0-4.56358-2.83061-7.683-6.98966-7.683A7.1,7.1,0,0,0,175.78946,22.85306Zm7.22088-4.3903a3.23135,3.23135,0,0,1,3.437,3.09049h-6.87429A3.35279,3.35279,0,0,1,183.01034,18.46276Z" style="fill:#50b79b"/><rect y="0.32861" width="39.79206" height="39.79206" rx="5.78059" style="fill:#50b79b"/><path d="M30.27321,26.76973a3.89373,3.89373,0,1,1-3.89386-3.94014l.13707.01945A3.7858,3.7858,0,0,1,30.27321,26.76973ZM17.17284,13.50933a3.91575,3.91575,0,1,1-.289-1.50079A3.89337,3.89337,0,0,1,17.17284,13.50933Zm15.76328,13.2604a6.53839,6.53839,0,0,0-10.18454-5.52349l-3.99517-4.08511a6.59133,6.59133,0,0,0-1.89769-9.05456,6.42468,6.42468,0,0,0-8.95045,1.92011,6.59133,6.59133,0,0,0,1.8993,9.06747,6.40879,6.40879,0,0,0,7.1043-.03544l4.00966,4.09957a6.68166,6.68166,0,0,0,1.86538,9.18189l.01633.00962a6.57117,6.57117,0,0,0,10.13288-5.58006Z" style="fill:#fff"/></svg>